<mxfile host="app.diagrams.net" agent="Mozilla/5.0 (Windows NT 10.0; Win64; x64; rv:144.0) Gecko/20100101 Firefox/144.0" version="28.2.5">
  <diagram name="Overtime Flow" id="HFjph0O6Kdc8xGvgqDXJ">
    <mxGraphModel dx="716" dy="493" grid="1" gridSize="10" guides="1" tooltips="1" connect="1" arrows="1" fold="1" page="1" pageScale="1" pageWidth="827" pageHeight="1169" math="0" shadow="0">
      <root>
        <mxCell id="0" />
        <mxCell id="1" parent="0" />
        <mxCell id="3p-4eoCmtaqQqgszuCm3-14" style="edgeStyle=orthogonalEdgeStyle;rounded=0;orthogonalLoop=1;jettySize=auto;html=1;fillColor=#f5f5f5;strokeColor=#666666;" parent="1" source="3p-4eoCmtaqQqgszuCm3-15" target="3p-4eoCmtaqQqgszuCm3-17" edge="1">
          <mxGeometry relative="1" as="geometry" />
        </mxCell>
        <mxCell id="3p-4eoCmtaqQqgszuCm3-15" value="Начало" style="ellipse;whiteSpace=wrap;html=1;" parent="1" vertex="1">
          <mxGeometry x="349" y="40" width="130" height="50" as="geometry" />
        </mxCell>
        <mxCell id="HL7bXbQrPyiBs9PwXOf2-56" style="edgeStyle=orthogonalEdgeStyle;rounded=0;orthogonalLoop=1;jettySize=auto;html=1;entryX=0.5;entryY=0;entryDx=0;entryDy=0;" parent="1" source="3p-4eoCmtaqQqgszuCm3-17" target="HL7bXbQrPyiBs9PwXOf2-1" edge="1">
          <mxGeometry relative="1" as="geometry" />
        </mxCell>
        <mxCell id="3p-4eoCmtaqQqgszuCm3-17" value="&lt;div&gt;double x, y&lt;/div&gt;int belonging" style="shape=parallelogram;perimeter=parallelogramPerimeter;whiteSpace=wrap;html=1;fixedSize=1;fillColor=#6a00ff;strokeColor=#3700CC;fontColor=#ffffff;" parent="1" vertex="1">
          <mxGeometry x="339" y="120" width="148" height="60" as="geometry" />
        </mxCell>
        <mxCell id="3p-4eoCmtaqQqgszuCm3-20" value="Конец" style="ellipse;whiteSpace=wrap;html=1;" parent="1" vertex="1">
          <mxGeometry x="349" y="585" width="130" height="50" as="geometry" />
        </mxCell>
        <mxCell id="HL7bXbQrPyiBs9PwXOf2-27" style="edgeStyle=orthogonalEdgeStyle;rounded=0;orthogonalLoop=1;jettySize=auto;html=1;entryX=0.5;entryY=0;entryDx=0;entryDy=0;fillColor=#f5f5f5;strokeColor=#666666;" parent="1" source="pS2kx78T9R6icxCyq9Gn-1" edge="1">
          <mxGeometry relative="1" as="geometry">
            <mxPoint x="414" y="490" as="targetPoint" />
          </mxGeometry>
        </mxCell>
        <mxCell id="pS2kx78T9R6icxCyq9Gn-1" value="belonging = 1;" style="rounded=0;whiteSpace=wrap;html=1;fillColor=#e3c800;fontColor=#000000;strokeColor=#B09500;" parent="1" vertex="1">
          <mxGeometry x="140" y="380" width="208.5" height="50" as="geometry" />
        </mxCell>
        <mxCell id="HL7bXbQrPyiBs9PwXOf2-20" style="edgeStyle=orthogonalEdgeStyle;rounded=0;orthogonalLoop=1;jettySize=auto;html=1;entryX=0.5;entryY=0;entryDx=0;entryDy=0;exitX=0;exitY=0.5;exitDx=0;exitDy=0;fillColor=#f5f5f5;strokeColor=#666666;" parent="1" source="HL7bXbQrPyiBs9PwXOf2-1" target="pS2kx78T9R6icxCyq9Gn-1" edge="1">
          <mxGeometry relative="1" as="geometry">
            <Array as="points">
              <mxPoint x="244" y="270" />
            </Array>
          </mxGeometry>
        </mxCell>
        <mxCell id="HL7bXbQrPyiBs9PwXOf2-60" value="Да" style="edgeLabel;html=1;align=center;verticalAlign=middle;resizable=0;points=[];fontColor=#666666;labelBackgroundColor=none;" parent="HL7bXbQrPyiBs9PwXOf2-20" vertex="1" connectable="0">
          <mxGeometry x="0.2204" y="-1" relative="1" as="geometry">
            <mxPoint as="offset" />
          </mxGeometry>
        </mxCell>
        <mxCell id="HL7bXbQrPyiBs9PwXOf2-1" value="(x &amp;gt;= 2.0) &amp;amp;&amp;amp;&lt;br&gt;&amp;nbsp; &amp;nbsp; &amp;nbsp; &amp;nbsp; (4.0 * x + 3.0 * y &amp;lt;= 23.0) &amp;amp;&amp;amp;&lt;br&gt;&amp;nbsp; &amp;nbsp; &amp;nbsp; &amp;nbsp; (5.0 * x - 3.0 * y &amp;lt;= 22.0)" style="rhombus;whiteSpace=wrap;html=1;fillColor=#fad7ac;strokeColor=#b46504;" parent="1" vertex="1">
          <mxGeometry x="274" y="220" width="280" height="100" as="geometry" />
        </mxCell>
        <mxCell id="HL7bXbQrPyiBs9PwXOf2-28" style="edgeStyle=orthogonalEdgeStyle;rounded=0;orthogonalLoop=1;jettySize=auto;html=1;fillColor=#f5f5f5;strokeColor=#666666;" parent="1" source="HL7bXbQrPyiBs9PwXOf2-22" edge="1">
          <mxGeometry relative="1" as="geometry">
            <mxPoint x="414" y="490" as="targetPoint" />
          </mxGeometry>
        </mxCell>
        <mxCell id="HL7bXbQrPyiBs9PwXOf2-22" value="belonging = 0;" style="rounded=0;whiteSpace=wrap;html=1;fillColor=#e3c800;fontColor=#000000;strokeColor=#B09500;" parent="1" vertex="1">
          <mxGeometry x="479" y="380" width="208.5" height="50" as="geometry" />
        </mxCell>
        <mxCell id="HL7bXbQrPyiBs9PwXOf2-23" style="edgeStyle=orthogonalEdgeStyle;rounded=0;orthogonalLoop=1;jettySize=auto;html=1;exitX=1;exitY=0.5;exitDx=0;exitDy=0;fillColor=#f5f5f5;strokeColor=#666666;" parent="1" source="HL7bXbQrPyiBs9PwXOf2-1" edge="1">
          <mxGeometry relative="1" as="geometry">
            <mxPoint x="590" y="380" as="targetPoint" />
            <Array as="points">
              <mxPoint x="590" y="270" />
            </Array>
          </mxGeometry>
        </mxCell>
        <mxCell id="HL7bXbQrPyiBs9PwXOf2-59" value="Нет" style="edgeLabel;html=1;align=center;verticalAlign=middle;resizable=0;points=[];fontColor=#666666;labelBackgroundColor=none;" parent="HL7bXbQrPyiBs9PwXOf2-23" vertex="1" connectable="0">
          <mxGeometry x="0.2237" y="-1" relative="1" as="geometry">
            <mxPoint as="offset" />
          </mxGeometry>
        </mxCell>
        <mxCell id="HL7bXbQrPyiBs9PwXOf2-57" style="edgeStyle=orthogonalEdgeStyle;rounded=0;orthogonalLoop=1;jettySize=auto;html=1;entryX=0.5;entryY=0;entryDx=0;entryDy=0;" parent="1" source="HL7bXbQrPyiBs9PwXOf2-31" target="3p-4eoCmtaqQqgszuCm3-20" edge="1">
          <mxGeometry relative="1" as="geometry" />
        </mxCell>
        <mxCell id="HL7bXbQrPyiBs9PwXOf2-31" value="belonging" style="shape=parallelogram;perimeter=parallelogramPerimeter;whiteSpace=wrap;html=1;fixedSize=1;fillColor=#6a00ff;fontColor=#ffffff;strokeColor=#3700CC;" parent="1" vertex="1">
          <mxGeometry x="344" y="490" width="140" height="60" as="geometry" />
        </mxCell>
      </root>
    </mxGraphModel>
  </diagram>
</mxfile>
